<?xml version="1.0" encoding="UTF-8" standalone="no"?>
<!-- Created with Inkscape (http://www.inkscape.org/) -->

<svg
   xmlns:dc="http://purl.org/dc/elements/1.1/"
   xmlns:cc="http://creativecommons.org/ns#"
   xmlns:rdf="http://www.w3.org/1999/02/22-rdf-syntax-ns#"
   xmlns:svg="http://www.w3.org/2000/svg"
   xmlns="http://www.w3.org/2000/svg"
   xmlns:sodipodi="http://sodipodi.sourceforge.net/DTD/sodipodi-0.dtd"
   xmlns:inkscape="http://www.inkscape.org/namespaces/inkscape"
   width="32.525158mm"
   height="55.710499mm"
   viewBox="0 0 32.525158 55.710499"
   version="1.1"
   id="svg2626"
   inkscape:version="0.92.4 5da689c313, 2019-01-14"
   sodipodi:docname="logo_abstract.svg">
  <defs
     id="defs2620">
    <inkscape:path-effect
       effect="skeletal"
       id="path-effect3505"
       is_visible="true"
       pattern="m 1.7129498,150.95914 c 0,-2.76 11.6083692,-0.49463 14.3683692,-0.49463 2.76,0 5.423569,-6.9e-4 5.423569,2.75931 0,2.76 -5.895854,0.79678 -8.655854,0.79678 -2.76,0 -11.1360842,-0.30146 -11.1360842,-3.06146 z"
       copytype="single_stretched"
       prop_scale="0.3590949"
       scale_y_rel="false"
       spacing="0"
       normal_offset="0"
       tang_offset="0"
       prop_units="false"
       vertical_pattern="false"
       fuse_tolerance="0"
       pattern-nodetypes="sssss" />
    <inkscape:path-effect
       effect="spiro"
       id="path-effect3503"
       is_visible="true" />
    <inkscape:path-effect
       effect="powerstroke"
       id="path-effect3499"
       is_visible="true"
       offset_points="0,0.13229166"
       sort_points="true"
       interpolator_type="CubicBezierJohan"
       interpolator_beta="0.2"
       start_linecap_type="zerowidth"
       linejoin_type="extrp_arc"
       miter_limit="4"
       end_linecap_type="zerowidth" />
    <inkscape:path-effect
       effect="spiro"
       id="path-effect3497"
       is_visible="true" />
    <inkscape:path-effect
       effect="skeletal"
       id="path-effect3493"
       is_visible="true"
       pattern="M 0,5 C 0,2.24 2.24,0 5,0 7.76,0 10,2.24 10,5 10,7.76 7.76,10 5,10 2.24,10 0,7.76 0,5 Z"
       copytype="single_stretched"
       prop_scale="0.26458333"
       scale_y_rel="false"
       spacing="0"
       normal_offset="0"
       tang_offset="0"
       prop_units="false"
       vertical_pattern="false"
       fuse_tolerance="0" />
    <inkscape:path-effect
       effect="spiro"
       id="path-effect3491"
       is_visible="true" />
    <marker
       inkscape:stockid="Arrow1Lstart"
       orient="auto"
       refY="0"
       refX="0"
       id="Arrow1Lstart"
       style="overflow:visible"
       inkscape:isstock="true">
      <path
         id="path3204"
         d="M 0,0 5,-5 -12.5,0 5,5 Z"
         style="fill:#000000;fill-opacity:1;fill-rule:evenodd;stroke:#000000;stroke-width:1.00000003pt;stroke-opacity:1"
         transform="matrix(0.8,0,0,0.8,10,0)"
         inkscape:connector-curvature="0" />
    </marker>
    <inkscape:path-effect
       effect="skeletal"
       id="path-effect3194"
       is_visible="true"
       pattern="m 16.759859,3.7417734 c 1.951705,0 13.58743,4.3436034 13.642241,5.5213314 C 30.41788,9.6021636 5.5795391,9.1611267 4.6987543,10.906236 4.4861424,8.1476062 13.999859,3.7417734 16.759859,3.7417734 Z M 30.46946,9.799513 c 0.05168,0.644567 -10.654812,9.276922 -12.640523,9.276922 -2.76,0 -13.2955476,-4.936358 -13.1538063,-7.697729 C 6.4873061,12.218443 30.40274,8.9673627 30.46946,9.799513 Z"
       copytype="single_stretched"
       prop_scale="0.73329346"
       scale_y_rel="false"
       spacing="0"
       normal_offset="0"
       tang_offset="0"
       prop_units="false"
       vertical_pattern="false"
       fuse_tolerance="0"
       pattern-nodetypes="sscssscs" />
    <inkscape:path-effect
       effect="spiro"
       id="path-effect3192"
       is_visible="true" />
  </defs>
  <sodipodi:namedview
     id="base"
     pagecolor="#ffffff"
     bordercolor="#666666"
     borderopacity="1.0"
     inkscape:pageopacity="0.0"
     inkscape:pageshadow="2"
     inkscape:zoom="2"
     inkscape:cx="19.904103"
     inkscape:cy="111.0896"
     inkscape:document-units="mm"
     inkscape:current-layer="layer1"
     showgrid="false"
     inkscape:window-width="1596"
     inkscape:window-height="861"
     inkscape:window-x="0"
     inkscape:window-y="18"
     inkscape:window-maximized="0"
     inkscape:snap-global="false" />
  <metadata
     id="metadata2623">
    <rdf:RDF>
      <cc:Work
         rdf:about="">
        <dc:format>image/svg+xml</dc:format>
        <dc:type
           rdf:resource="http://purl.org/dc/dcmitype/StillImage" />
        <dc:title />
      </cc:Work>
    </rdf:RDF>
  </metadata>
  <g
     inkscape:label="Layer 1"
     inkscape:groupmode="layer"
     id="layer1"
     transform="translate(-60.061797,-66.972129)">
    <g
       id="g3597"
       transform="matrix(0.86754518,0,0,0.78562027,5.888892,4.6013277)">
      <path
         id="path3590"
         transform="scale(0.26458333)"
         d="m 309.85351,300.06029 c -15.44433,-0.10913 -30.31115,5.27055 -41.84416,14.56197 -13.14995,10.65006 -27.74953,23.93206 -28.93089,45.46926 -1.21644,22.17679 -1.88865,32.29366 -1.32015,31.9407 4.4025,-6.09353 18.00974,-25.17084 24.00021,-39.61615 4.46588,-10.76896 -3.71964,-25.19781 8.5602,-34.25293 12.82506,-9.44027 31.6214,-15.10801 51.11813,-10.27797 16.79647,4.17963 32.59767,16.12804 41.545,33.36954 8.70516,16.81785 10.10218,37.26792 4.1773,54.9643 -6.09018,17.89127 -18.90544,32.39655 -29.27395,44.23124 -14.31435,16.56199 -23.27083,28.12834 -27.67781,42.6701 -4.64948,15.04055 -2.4501,24.24574 -1.81777,27.81627 -0.22306,-3.86028 -0.8054,-14.35772 3.87633,-27.10579 5.09972,-14.35933 14.86764,-25.14927 28.84435,-40.26215 12.7355,-13.27621 24.89217,-26.82186 31.9363,-45.15007 4.68679,-12.81991 5.31001,-25.33725 4.16362,-35.49905 -1.14034,-10.10788 -3.98419,-17.70935 -5.83729,-21.84919 -0.5109,-1.14135 -1.09054,-2.34968 -1.74571,-3.60809 -7.00249,-13.32241 -22.25566,-30.68791 -46.72467,-35.98487 -4.35437,-0.9259 -8.72463,-1.38656 -13.04904,-1.41712 z"
         style="fill:#800080;stroke:none;stroke-width:0.99999994px;stroke-linecap:butt;stroke-linejoin:miter;stroke-opacity:1"
         inkscape:connector-curvature="0"
         sodipodi:nodetypes="scscaccccccccccscccs" />
      <path
         id="path3586"
         transform="scale(0.26458333)"
         d="m 307.04887,308.05799 c -13.69495,0.0346 -23.41724,3.98665 -33.62404,10.11071 -1.90523,1.14313 -4.84914,4.78798 -4.84914,4.78798 0,0 5.73066,-1.77862 8.668,-2.24816 13.83266,-2.21118 26.84505,-7.3272 41.86281,-2.62987 16.65629,5.12842 27.98239,17.98773 33.31991,29.19978 2.64201,5.47446 3.99321,10.65862 4.76651,14.44483 1.03064,5.04626 3.42312,16.98848 -0.20067,30.6966 -3.51439,14.42312 -12.91974,27.11002 -24.53845,42.77763 -12.36316,16.23265 -21.8179,30.4374 -25.55541,46.78226 -3.71913,16.39192 -0.50946,25.94425 0.65851,29.76048 -0.7202,-4.04327 -2.07939,-14.55286 2.25465,-28.75621 4.40737,-14.68683 13.36745,-26.44639 27.53463,-43.05511 10.28514,-11.94133 22.93294,-26.47486 28.75132,-44.10739 5.69278,-17.41337 4.15768,-37.4705 -4.44089,-53.81025 -8.81806,-16.74115 -24.31331,-28.31133 -40.6384,-32.29421 -4.72069,-1.1508 -9.40434,-1.6706 -13.96934,-1.65907 z"
         style="fill:#ff00ff;stroke:none;stroke-width:0.99999994px;stroke-linecap:butt;stroke-linejoin:miter;stroke-opacity:1"
         inkscape:connector-curvature="0"
         sodipodi:nodetypes="sacaccccccccccccs" />
      <path
         transform="matrix(0.8545327,0,0,-1,9.3862425,297.88032)"
         inkscape:original-d="m 83.417299,154.50625 c 2.879695,0.16728 2.861912,-1.18173 4.368849,-0.93036 1.506936,0.25136 -1.841851,3.34896 -2.76304,5.0237 -0.921188,1.67475 -4.01879,-4.1866 -6.028449,-6.27963 -2.009658,-2.09304 2.679488,-2.51203 4.018966,-3.76778 1.33948,-1.25575 0.837461,9.20996 1.255927,13.81519"
         inkscape:path-effect="#path-effect3503;#path-effect3505"
         inkscape:connector-curvature="0"
         id="path3501"
         d="m 83.002599,154.4117 c -0.03066,-0.007 -0.242895,-0.702 0.580836,-1.62441 0.339496,-0.37859 0.857753,-0.75431 1.553813,-0.92734 0.551082,-0.13568 1.195343,-0.13634 1.842887,0.0909 0.560737,0.19827 1.099058,0.56143 1.511479,1.09561 0.448119,0.59085 0.71572,1.33564 0.714643,2.13414 -0.0024,0.72818 -0.207278,1.45808 -0.608199,2.10006 -0.375309,0.6 -0.889887,1.10893 -1.501549,1.4857 -0.582002,0.35858 -1.226837,0.60213 -1.896951,0.72938 -0.978579,0.18965 -2.019642,0.14675 -3.015801,-0.15954 -0.964373,-0.29745 -1.858568,-0.83816 -2.575762,-1.58282 0,0 -2e-6,0 -2e-6,0 -0.705931,-0.73438 -1.216174,-1.64837 -1.465024,-2.64322 0,0 -10e-7,-1e-5 -10e-7,-1e-5 -0.248003,-0.99594 -0.222526,-2.04313 0.07019,-3.01639 0,0 10e-7,-1e-5 10e-7,-1e-5 0.333354,-1.08908 0.975145,-2.03071 1.782544,-2.74217 0.837533,-0.73738 1.819938,-1.22868 2.814364,-1.50036 10e-7,0 2e-6,0 3e-6,0 2.508658,-0.6871 4.911754,0.003 6.516332,1.12243 1.488716,1.04525 2.289801,2.40365 2.697111,3.34511 0.321038,0.74205 0.524413,1.52774 0.59696,2.32474 0.218235,2.47099 -0.816246,4.709 -2.288191,6.09961 -3.402263,3.19871 -6.028501,1.28744 -6.023511,1.23834 0.0406,-0.39935 2.798125,-0.0765 5.00006,-2.27274 1.159942,-1.14504 2.007072,-2.98371 1.865811,-4.93377 -0.126424,-1.868 -1.164529,-3.63968 -2.618959,-4.67172 -1.295826,-0.92728 -2.81553,-1.21527 -4.036871,-1.13462 -0.400047,0.0264 -0.848611,0.0934 -1.317593,0.22958 -0.735818,0.21414 -1.552406,0.59476 -2.239369,1.21654 -0.588371,0.53207 -1.100807,1.25113 -1.346273,2.08495 -0.209429,0.69782 -0.236236,1.48549 -0.04948,2.2406 0.178701,0.72581 0.55809,1.42354 1.091828,1.98661 0,0 10e-7,0 10e-7,0 0.526361,0.55625 1.205998,0.9814 1.944926,1.22033 0,0 2e-6,0 2e-6,0 0.747156,0.24216 1.556173,0.29291 2.32361,0.16157 0.517958,-0.0901 1.011315,-0.25731 1.443387,-0.51017 0.447691,-0.262 0.832188,-0.60944 1.104934,-1.01708 0.287686,-0.42944 0.45746,-0.92243 0.47907,-1.40603 0.02403,-0.52241 -0.11793,-1.03504 -0.387222,-1.43489 -0.24237,-0.36309 -0.586887,-0.6397 -0.955237,-0.80594 -0.423253,-0.19143 -0.879603,-0.24077 -1.285585,-0.18923 0,0 -10e-7,0 -10e-7,0 -0.511596,0.0648 -0.944358,0.28446 -1.262277,0.52888 -0.721861,0.55511 -0.916106,1.17039 -1.060941,1.13737 z"
         style="fill:#800080;stroke:none;stroke-width:0.26458332px;stroke-linecap:butt;stroke-linejoin:miter;stroke-opacity:1"
         sodipodi:nodetypes="ccsccc" />
    </g>
    <circle
       r="2.6458333"
       cy="76.259766"
       cx="62.70763"
       id="circle3605"
       style="opacity:1;fill:#ffffff;fill-opacity:1;stroke:none;stroke-width:0.49259254;stroke-miterlimit:4;stroke-dasharray:none;paint-order:markers fill stroke" />
    <circle
       style="opacity:1;fill:#ff00ff;fill-opacity:1;stroke:none;stroke-width:0.32018515;stroke-miterlimit:4;stroke-dasharray:none;paint-order:markers fill stroke"
       id="circle3607"
       cx="62.70763"
       cy="76.259766"
       r="1.7197915" />
  </g>
</svg>
